PathFileType	4	(X/Y/Z)	W08_1_OpenSim.trc																																																																																																																						
DataRate	CameraRate	NumFrames	NumMarkers	Units	OrigDataRate	OrigDataStartFrame	OrigNumFrames																																																																																																																		
100	100	4	40	mm	100	1126	3000																																																																																																																		
Frame#	Time	R.ASIS			R.PSIS			S2			L.PSIS			L.ASIS			R.TH1			R.TH2			R.TH3			R.MKnee			R.Knee			R.SH1			R.SH2			R.SH3			R.SH4			R.Ankle			R.MAnkle			R.Heel			R.MT5			R.MT1			L.TH1			L.TH2			L.TH3			L.TH4			L.MKnee			L.Knee			L.SH1			L.SH2			L.SH3			L.Ankle			L.MAnkle			L.Heel			L.MT5			L.MT1			R.Acr			L.Acr			C7			T10			Clav			Sternum			R.Back		
		X1	Y1	Z1	X2	Y2	Z2	X3	Y3	Z3	X4	Y4	Z4	X5	Y5	Z5	X6	Y6	Z6	X7	Y7	Z7	X8	Y8	Z8	X9	Y9	Z9	X10	Y10	Z10	X11	Y11	Z11	X12	Y12	Z12	X13	Y13	Z13	X14	Y14	Z14	X15	Y15	Z15	X16	Y16	Z16	X17	Y17	Z17	X18	Y18	Z18	X19	Y19	Z19	X20	Y20	Z20	X21	Y21	Z21	X22	Y22	Z22	X23	Y23	Z23	X24	Y24	Z24	X25	Y25	Z25	X26	Y26	Z26	X27	Y27	Z27	X28	Y28	Z28	X29	Y29	Z29	X30	Y30	Z30	X31	Y31	Z31	X32	Y32	Z32	X33	Y33	Z33	X34	Y34	Z34	X35	Y35	Z35	X36	Y36	Z36	X37	Y37	Z37	X38	Y38	Z38	X39	Y39	Z39	X40	Y40	Z40
1126	11.25	972.8643	1045.5974	-424.7166	779.1176	1048.3317	-506.5861	770.3602	1043.7255	-551.5381	773.3578	1050.6141	-601.687	944.6908	1040.3626	-719.5796	1022.7101	742.0914	-393.8287	946.4774	712.5012	-386.7535	985.1855	610.1849	-397.8356	1051.7332	503.4784	-518.9789	1049.6807	510.1137	-402.925	1094.88	353.0596	-393.7163	1123.0419	245.0566	-407.0901	1015.1453	332.7614	-388.8116	1046.2894	224.2879	-392.5925	1104.4784	73.8473	-395.6055	1144.3191	96.9553	-486.3161	1054.1411	32.7158	-457.9338	1221.6003	45.3203	-360.9182	1274.6209	54.0007	-445.4157	914.2232	740.4044	-727.4662	890.6016	634.7119	-716.8308	833.2095	753.0807	-743.6415	812.493	646.5892	-725.4651	829.0467	488.8173	-601.4372	821.6101	498.8316	-711.2684	776.7035	370.495	-728.8944	701.4998	404.441	-732.4891	658.7052	303.0963	-728.7332	627.8784	93.0846	-728.3541	662.7636	98.0397	-629.9711	560.7265	59.5998	-671.6572	728.1793	33.6866	-750.2699	771.219	45.5138	-650.9476	913.4755	1435.0418	-398.5861	892.5613	1435.6853	-725.769	845.4564	1482.9318	-562.0876	810.2363	1155.611	-562.544	980.6502	1383.8088	-569.1598	1006.7304	1240.2967	-564.3925	768.0954	1383.7518	-477.7183
1127	11.26	974.7883	1046.121	-422.3315	780.9446	1048.3093	-503.6649	772.3099	1043.3174	-548.6307	774.7939	1050.132	-598.7656	945.9155	1039.5818	-717.0888	1024.9584	742.7623	-390.8989	948.6802	713.1928	-384.1473	987.2162	610.8948	-395.5963	1053.2794	504.1934	-517.1824	1051.9324	510.6388	-401.139	1095.3612	352.5656	-392.7398	1121.3892	244.078	-406.6692	1015.4457	333.6028	-386.1937	1044.6576	224.6384	-390.7121	1098.332	73.5815	-395.2772	1138.3457	95.9435	-486.1196	1046.6219	33.4883	-457.5464	1214.9668	42.677	-361.357	1268.1772	49.6016	-446.1428	915.7328	739.8458	-724.9053	892.5499	633.9814	-714.6561	834.5012	752.3469	-740.2483	814.281	645.6558	-722.4919	832.1941	487.4459	-599.6234	824.2672	498.0567	-709.4459	776.4904	370.5983	-727.4989	701.9482	406.2829	-730.5449	657.0566	305.8242	-727.2477	621.8409	95.9714	-728.2846	657.0171	100.2609	-630.0267	554.0841	64.2389	-671.5289	720.7502	34.0033	-750.4443	763.6545	45.3935	-650.8167	914.2226	1434.7841	-395.9805	892.6739	1434.9896	-723.251	845.9081	1482.5879	-559.4611	811.5389	1155.1096	-560.0757	981.2754	1383.672	-566.671	1007.8014	1240.2527	-561.8196	768.8737	1383.1397	-474.9089
1128	11.27	976.6863	1047.0172	-419.8873	782.7579	1048.7156	-500.7832	774.2257	1043.3547	-545.7721	776.2595	1050.0857	-595.8795	947.2632	1039.1432	-714.4874	1027.1045	743.61	-388.0234	950.7823	714.1684	-381.2568	988.9988	611.8309	-393.064	1054.0811	504.9419	-515.2704	1053.6394	511.2216	-399.2342	1095.1385	352.1963	-391.6009	1119.0878	243.2673	-406.1076	1015.0957	334.5287	-383.3788	1042.4491	225.1071	-388.6963	1091.7207	73.4796	-394.8535	1131.9055	95.2842	-485.8277	1039.016	34.0779	-457.1108	1207.9531	40.8256	-361.5085	1261.3168	46.3252	-446.5243	917.616	739.5688	-722.3533	895.0287	633.4944	-712.5779	836.153	751.7763	-736.8593	816.5952	644.8438	-719.6099	836.1508	486.1704	-597.9843	827.7414	497.43	-707.7778	776.9857	370.981	-726.3174	703.1937	408.4485	-728.7044	656.1165	308.9843	-725.8577	616.3252	99.3788	-728.3505	651.8018	102.9363	-630.2509	547.9065	69.7756	-671.4645	713.3597	34.3673	-750.7419	756.1584	45.2306	-650.721	914.9316	1434.8281	-393.3202	892.6932	1434.5875	-720.7181	846.3039	1482.535	-556.7927	812.8477	1154.924	-557.567	981.8534	1383.8658	-564.1357	1008.8788	1240.5654	-559.2114	769.6149	1382.7948	-472.0283
1129	11.28	978.5033	1048.2584	-417.3403	784.5071	1049.5083	-497.9363	775.9718	1043.8491	-542.9489	777.6951	1050.4601	-593.0241	948.699	1039.0837	-711.7528	1029.0409	744.5441	-385.2765	952.6429	715.3711	-378.2308	990.3718	612.9274	-390.4105	1054.0353	505.703	-513.338	1054.6007	511.7967	-397.3183	1094.0582	351.8955	-390.4074	1116.042	242.579	-405.4839	1013.9251	335.4591	-380.6408	1039.5283	225.6153	-386.7541	1084.6788	73.5113	-394.4146	1125.0365	94.9001	-485.5412	1031.3253	34.4885	-456.6912	1200.6133	39.6505	-361.4623	1254.0933	44.0407	-446.6473	919.9286	739.5819	-719.798	898.115	633.2586	-710.5906	838.2254	751.352	-733.5326	819.5248	644.1374	-716.8745	840.9947	485.0083	-596.5371	832.1145	496.9497	-706.3091	778.2983	371.646	-725.3746	705.3641	410.9256	-726.9919	656.0132	312.5739	-724.5877	611.4348	103.3392	-728.5592	647.2269	106.0716	-630.6586	542.3242	76.2648	-671.4759	706.0489	34.828	-751.1603	748.7645	45.0382	-650.6593	915.5939	1435.2081	-390.6254	892.6257	1434.5128	-718.1737	846.6412	1482.7833	-554.0997	814.1312	1155.0725	-554.9904	982.3796	1384.4017	-561.5646	1009.9415	1241.2445	-556.5739	770.3168	1382.7499	-469.0973
